<svg xmlns="http://www.w3.org/2000/svg" viewBox="0 0 64 64" role="img" aria-label="Suporte vitalicio">
  <g fill="none" stroke="#3f4448" stroke-linecap="round" stroke-linejoin="round">
    <path d="M12 34.2v-7.5C12 15.9 20.3 8 32 8s20 7.9 20 18.7v7.5" stroke-width="3.4"/>
    <path d="M15.7 28.7h-2.4A5.3 5.3 0 0 0 8 34v8a5.3 5.3 0 0 0 5.3 5.3h2.4V28.7Z" stroke-width="3.2"/>
    <path d="M48.3 28.7h2.4A5.3 5.3 0 0 1 56 34v8a5.3 5.3 0 0 1-5.3 5.3h-2.4V28.7Z" stroke-width="3.2"/>
    <path d="M44.2 48.7c0 4-3.2 7.3-7.2 7.3h-6.6" stroke-width="3"/>
    <path d="M28 56h-5" stroke-width="3.8"/>
    <circle cx="32" cy="32.8" r="7" stroke-width="2.8"/>
    <path d="M32 22.8v3M32 39.8v3M22 32.8h3M39 32.8h3M25 25.8l2.1 2.1M36.9 37.7l2.1 2.1M39 25.8l-2.1 2.1M27.1 37.7 25 39.8" stroke-width="2.4"/>
  </g>
</svg>
