<?xml version="1.0" encoding="utf-8"?>
<!-- Generator: Adobe Illustrator 26.5.0, SVG Export Plug-In . SVG Version: 6.00 Build 0)  -->
<svg version="1.1" id="Calque_1" xmlns="http://www.w3.org/2000/svg" xmlns:xlink="http://www.w3.org/1999/xlink" x="0px" y="0px"
	 viewBox="0 0 1709.09 588.96" style="enable-background:new 0 0 1709.09 588.96;" xml:space="preserve">
<style type="text/css">
	.st0{fill:#009FFF;}
</style>
<g>
	<path class="st0" d="M858.64,177.32H715.99c-17.76,0-31.68,13.92-31.68,31.68v200.86c0,17.76,13.92,31.68,31.68,31.68
		c17.76,0,31.67-13.92,31.67-31.68v-69.12h94.6c16.33,0,29.13-12.79,29.13-29.13c0-16.33-12.79-29.13-29.13-29.13h-94.6v-46.91
		h110.98c16.06,0,29.13-13.07,29.13-29.13S874.7,177.32,858.64,177.32z"/>
	<path class="st0" d="M971.29,175.21c-17.76,0-31.68,13.91-31.68,31.67v200.88c0,17.76,13.92,31.68,31.68,31.68h131.73
		c16.33,0,29.13-12.79,29.13-29.13c0-16.33-12.79-29.13-29.13-29.13h-100.06v-174.3C1002.96,189.11,989.05,175.21,971.29,175.21z"/>
	<path class="st0" d="M1287.31,172.99c-78.16,0-139.38,59.47-139.38,135.39v0.73c0,76.77,59.61,134.65,138.65,134.65
		c78.17,0,139.4-59.47,139.4-135.38v-0.73C1425.98,230.88,1366.36,172.99,1287.31,172.99z M1360.08,309.1
		c0,43.14-31.29,75.68-72.77,75.68c-41.89,0-73.49-32.85-73.49-76.41v-0.73c0-43.14,31.28-75.68,72.76-75.68
		c41.9,0,73.5,32.85,73.5,76.41V309.1z"/>
	<path class="st0" d="M1558.28,444.02c29.27,0,55.31-9.35,75.32-27.03l4.46-3.94l1.43,5.78c3.23,13.1,16.28,22.26,31.73,22.26
		c18.23,0,32.51-14.06,32.51-32.01V281.96c0-35.89-9.7-63.53-28.84-82.17l-0.07-0.07c-19.08-19.6-49.57-29.95-88.17-29.95
		c-30.76,0-56.02,4.61-84.47,15.42c-10.84,4.21-18.43,15.26-18.43,26.86c0,15.49,12.82,28.1,28.58,28.1c3.15,0,6.4-0.5,10.21-1.59
		l0.51-0.17c17.07-6.71,35.32-9.98,55.78-9.98c18.92,0,33.64,4.11,43.74,12.23c10.29,8.27,15.86,20.64,16.56,36.76l0.21,4.97
		l-4.79-1.34c-12.43-3.48-32.3-8.1-61.12-8.1c-34.15,0-62.3,8.02-81.4,23.18c-18.86,14.97-28.83,36.96-28.83,63.58v0.97
		C1463.21,409.74,1502.3,444.02,1558.28,444.02z M1528.2,357.26c0-15.31,7.9-26.83,22.84-33.3c11.6-5.02,24.97-6.08,34.13-6.08
		c23.45,0,41.54,4.51,52.58,8.29l2.44,0.83v15.08c0,29.9-27.45,51.6-65.28,51.6c-11.79,0-22.76-2.71-30.88-7.63
		c-10.36-6.28-15.83-15.9-15.83-27.82V357.26z"/>
	<path class="st0" d="M563.8,24.22C542.12,2.53,511.06-3.32,482.76,8.94c-38.37,16.62-58.74,53.83-73.61,88.02l-57.8,139.7
		l139.4-57.67l0.3-0.13c34.2-14.87,71.4-35.24,88.03-73.61C591.34,76.95,585.49,45.9,563.8,24.22z M546.04,90.95
		c-6.53,15.07-19.86,33.36-69.2,54.84l-59.04,24.43l24.42-59.04c12.06-27.72,28.01-57.58,54.84-69.2c14.67-6.36,30.1-3.48,41.28,7.7
		C549.52,60.85,552.4,76.28,546.04,90.95z M483.28,250.26c-40.43-15.99-82.84-3.58-119.01,10.67l-37.65,15.61
		c-4.36-5.86-9.56-11.07-15.42-15.42l15.49-37.35l0.12-0.3c14.25-36.16,26.65-78.58,10.67-119.01
		c-11.74-29.7-38.76-48.15-70.5-48.14c0,0,0,0,0,0c-31.74,0-58.76,18.45-70.5,48.14c-3.83,9.69-6.02,19.5-6.95,29.31
		c-7.6-6.27-16.08-11.66-25.64-15.81c-29.31-12.7-61.45-6.64-83.9,15.81c-22.45,22.45-28.5,54.59-15.81,83.9
		c4.14,9.56,9.53,18.04,15.81,25.64c-9.81,0.93-19.61,3.12-29.31,6.95C20.99,262,2.54,289.02,2.54,320.76s18.45,58.76,48.14,70.5
		c9.69,3.83,19.5,6.03,29.3,6.96c-6.27,7.59-11.66,16.07-15.8,25.63c-12.7,29.3-6.64,61.45,15.81,83.9
		c14.68,14.68,33.51,22.35,52.97,22.35c10.3,0,20.78-2.15,30.92-6.54c9.56-4.14,18.04-9.53,25.64-15.81
		c0.93,9.81,3.12,19.61,6.95,29.31c11.74,29.7,38.76,48.15,70.5,48.14c0,0,0,0,0,0c31.74,0,58.76-18.45,70.5-48.14
		c3.83-9.69,6.02-19.5,6.95-29.31c7.6,6.27,16.08,11.66,25.64,15.81c10.14,4.39,20.62,6.54,30.92,6.54
		c19.47,0,38.3-7.67,52.97-22.35c22.44-22.45,28.5-54.59,15.81-83.9c-4.14-9.56-9.53-18.04-15.8-25.63
		c9.81-0.93,19.61-3.13,29.3-6.96c29.7-11.74,48.15-38.76,48.15-70.5S512.98,262,483.28,250.26z M63.92,357.78
		c-15.89-6.29-25.38-20.13-25.38-37.02s9.49-30.74,25.38-37.02c6.98-2.76,15.36-5.02,26.89-5.02c14.76,0,34.7,3.73,63.45,14.85
		c0.54,0.24,1.08,0.47,1.61,0.71l37.63,15.57c-0.53,3.57-0.81,7.21-0.81,10.92c0,3.71,0.28,7.35,0.81,10.92l-37.33,15.45l-0.3,0.13
		c-0.62,0.27-1.24,0.54-1.86,0.82C124.98,359.33,91.91,368.85,63.92,357.78z M207.27,417.75l-0.12,0.3
		c-0.24,0.62-0.49,1.24-0.73,1.87c-12.57,28.51-29.22,58.64-56.84,70.61c-15.68,6.79-32.18,3.72-44.13-8.23
		c-11.95-11.95-15.03-28.45-8.23-44.13c6.81-15.71,20.6-34.73,70.83-56.94c0.55-0.21,1.1-0.42,1.64-0.64l37.65-15.61
		c4.36,5.86,9.56,11.07,15.42,15.42L207.27,417.75z M207.34,276.54l-37.35-15.49l-0.3-0.12c-0.62-0.25-1.25-0.49-1.88-0.73
		c-28.5-12.57-58.63-29.22-70.59-56.84c-6.79-15.68-3.72-32.18,8.23-44.13c11.95-11.95,28.45-15.02,44.13-8.23
		c15.71,6.8,34.72,20.6,56.92,70.79c0.22,0.56,0.44,1.13,0.66,1.68l15.61,37.65C216.9,265.47,211.7,270.67,207.34,276.54z
		 M304.01,523.82c-6.29,15.89-20.12,25.38-37.02,25.38c-16.9,0-30.74-9.49-37.02-25.38c-6.29-15.92-9.99-39.11,9.81-90.3
		c0.24-0.55,0.49-1.11,0.73-1.66l15.57-37.63c3.57,0.53,7.21,0.81,10.92,0.81c3.71,0,7.35-0.28,10.92-0.81l15.45,37.33l0.13,0.3
		c0.27,0.62,0.54,1.23,0.81,1.85C305.55,462.76,315.07,495.83,304.01,523.82z M228.7,320.76c0-21.11,17.17-38.28,38.28-38.28
		s38.28,17.17,38.28,38.28c0,21.11-17.17,38.28-38.28,38.28S228.7,341.87,228.7,320.76z M293.38,210.13l-15.41,37.17
		c-3.58-0.53-7.25-0.82-10.98-0.82c-3.71,0-7.35,0.28-10.92,0.81l-15.45-37.33l-0.12-0.3c-0.27-0.62-0.54-1.23-0.81-1.85
		c-11.26-29.04-20.79-62.12-9.72-90.11c6.29-15.89,20.12-25.38,37.02-25.38c16.9,0,30.74,9.49,37.02,25.38
		C310.39,133.84,314.11,157.43,293.38,210.13z M428.52,482.29c-11.95,11.95-28.44,15.03-44.13,8.23
		c-15.7-6.8-34.71-20.59-56.91-70.77c-0.22-0.57-0.44-1.14-0.66-1.7l-15.61-37.65c5.86-4.36,11.07-9.56,15.42-15.42l37.35,15.49
		l0.3,0.12c0.6,0.24,1.22,0.47,1.83,0.71c28.52,12.57,58.67,29.23,70.65,56.86C443.54,453.85,440.47,470.35,428.52,482.29z
		 M470.04,357.78c-15.92,6.29-39.11,9.99-90.31-9.81c-0.55-0.24-1.1-0.48-1.65-0.72l-37.63-15.57c0.53-3.57,0.81-7.21,0.81-10.92
		c0-3.73-0.28-7.4-0.82-10.98l37.17-15.42c29.59-11.65,63.69-21.99,92.42-10.63c15.89,6.29,25.38,20.13,25.38,37.02
		S485.94,351.5,470.04,357.78z"/>
</g>
</svg>
