<?xml version="1.0" encoding="UTF-8"?>
<svg id="Layer_2" xmlns="http://www.w3.org/2000/svg" version="1.1" viewBox="0 0 414.4 80.8">
  <!-- Generator: Adobe Illustrator 29.3.1, SVG Export Plug-In . SVG Version: 2.1.0 Build 151)  -->
  <defs>
    <style>
      .st0 {
        fill: #ff9a00;
      }

      .st0, .st1 {
        fill-rule: evenodd;
      }

      .st1 {
        fill: #fff;
      }
    </style>
  </defs>
  <g id="Camada_1">
    <path class="st1" d="M163.8.6c0,2.4,0,4.7.1,7.1.1.5,0,1.5.1,2.1h.1c0,1.1,0,2.1.1,3.2h-.1c-.4-.2-.9-.2-1.3-.3h0c0-.1-.5-.1-.5-.1h0c0-.1-.6-.1-.6-.1h0c0-.1-.6-.1-.6-.1-.9-.2-3.1-.4-4.1-.1h-.9c0,.1-.6.1-.6.1h0c0,.1-.5.1-.5.1h0c0,.1-.4.1-.4.1h0c0,.1-.3.1-.3.1h0c0,.1-.3.1-.3.1h0c0,.1-.3.1-.3.1h0c-.2.1-.4.2-.6.2h0c-.2.2-.4.2-.6.3h0c0,.1-.2.1-.2.1h0c0,.1-.2.1-.2.1h0c-.2.2-.4.2-.6.3,0,0,0,.1-.1.2-.1,0-.3,0-.4.1,0,0,0,.1-.1.2-.1,0-.2,0-.3.1,0,.1-.1.2-.2.3h-.2c-.1.2-.3.3-.4.5h-.2c-.1.1-.2.3-.3.4-.3.2-.5.5-.8.7v.2c-.2.1-.3.3-.5.4v.2c-.1,0-.2.1-.3.2v.2c0,0-.1,0-.2.1v.2c0,0-.1,0-.2.1,0,.1,0,.2-.1.3h-.1c0,.1,0,.3-.1.4,0,0-.1,0-.2.1,0,.2-.1.4-.2.6h-.1v.2h-.1v.2h-.1c0,.2-.1.4-.2.6h-.1v.3h-.1v.2h-.1v.3h-.1v.2h-.1v.3h-.1v.3h-.1c0,.2,0,.5-.1.7h-.1c-.3,1.5-.5,3-.8,4.5v1h-.1v1.1h-.1v1.4h-.1v1.6h-.1v2c-.2.6,0,1.7-.1,2.3h-.1v2.9c-.3.9-.1,2.4-.1,3.5v1c-.2.8-.1,2.2-.1,3.2,0,2.2,0,4.5.1,6.7h.1v.6c-1.1,0-2.7.2-3.6,0-3.8,0-7.7,0-11.5,0v-.4h.1v-1.7h.1v-1.6h.1v-1.1c0-.7,0-1.4.1-2.1h.1v-1.7h.1c0-.7,0-1.4.1-2.1v-1.1h.1v-1.6h.1c0-.7,0-1.5.1-2.2v-1.1h.1v-1.6h.1v-1.6h.1c0-.7,0-1.5.1-2.2v-1.1h.1v-1.6h.1c0-2.3,0-4.5.1-6.8.2-.6,0-1.6.1-2.4,0-.9,0-1.8.1-2.7v-1.8c.4-1.4,0-3.5.1-5,.3-3.1,0-6.4,0-9.6,1.2,0,2.9-.2,4,.1,3.4,0,6.8,0,10.2-.1,0,2.4-.1,4.8-.2,7.2h.1v-.2c.3-.2.3-.4.5-.7.1,0,.2-.1.3-.2v-.2c.1,0,.2-.1.3-.2v-.2c.1,0,.2-.1.3-.2v-.2c.1,0,.3-.2.4-.3v-.2c.2-.2.4-.3.6-.5v-.2c.3-.3.7-.6,1-.9.1-.2.3-.3.4-.5h.2c.1-.1.2-.3.3-.4h.2c0,0,0-.1.1-.2h.1c0,0,0-.1.1-.2h.2c0,0,0-.1.1-.2.1,0,.2,0,.3,0h0c0,0,.2,0,.2,0,0,0,0-.1.1-.2.1,0,.3,0,.4,0,0,0,0-.1.1-.2.2,0,.4-.1.6-.2h0c0-.1.2-.1.2-.1h0c0-.1.2-.1.2-.1h0c.2-.2.4-.2.6-.3h0c0-.1.3-.1.3-.1h0c0-.1.2-.1.2-.1h0c0-.1.3-.1.3-.1h0c0-.1.3-.1.3-.1h0c0-.1.3-.1.3-.1h0c0-.1.3-.1.3-.1h0c0-.1.4-.1.4-.1h0c0-.1.3-.1.3-.1h0c0-.1.5-.1.5-.1h0c0,0,.5,0,.5,0h0c0,0,.5,0,.5,0h0c0,0,.8,0,.8,0h0c1-.1,2.1-.2,3.1-.2h0c0,.1,1.2.1,1.2.1h0c0,0,.7,0,.7,0,.4.1,1,.3,1.5.3h0Z"/>
    <path class="st1" d="M273.2,1.7c.2,3.7.5,7.4.7,11-.5-.1-1.1-.4-1.5-.6-.2,0-.4,0-.6-.1h0c0-.1-.3-.1-.3-.1h0c0-.1-.3-.1-.3-.1h0c0-.1-.3-.1-.3-.1h0c-.2-.1-.5-.2-.7-.2h0c-.2-.1-.5-.2-.7-.2h0c0-.1-.4-.1-.4-.1h0c0-.1-.4-.1-.4-.1h0c0-.1-.5-.1-.5-.1h0c0-.1-.4-.1-.4-.1h0c0-.1-.6-.1-.6-.1-3.1-.9-8.5-.6-11.1.4h-.3c0,.1-.2.1-.2.1h0c0,.1-.2.1-.2.1h0c0,.1-.2.1-.2.1h0c0,.1-.2.1-.2.1h0c0,.1-.2.1-.2.1,0,0,0,.1-.1.2h-.2c0,.1-.1.2-.2.3h-.2c0,.1-.1.2-.2.3h-.1v.2c-.1.1-.3.2-.4.3v.2h-.1c0,.2-.1.4-.2.6h-.1v.3c-.1.3-.4,1.3-.3,1.8h.1v.6h.1v.4h.1v.3h.1v.2h.1c0,.2.1.4.2.6,0,0,.1,0,.2.1v.2c0,0,.1,0,.2.1v.2c.1.1.3.2.4.3v.2c.3.3.6.5.9.8.2.2.3.4.5.6h.2c.1.2.3.3.4.5h.2c.1.1.2.3.3.4.1,0,.2,0,.3.1,0,0,0,.1.1.2h.2c.1.1.2.3.3.4.1,0,.2,0,.3.1,0,0,0,.1.1.2h.2c0,.1.1.2.2.3h.2c0,.1.1.2.2.3h.2c.1.1.2.3.3.4.1,0,.2,0,.3.1,0,0,0,.1.1.2h.2c0,.1.1.2.2.3h.2c0,.1.1.2.2.3h.2c0,.1.1.2.2.3h.2c.1.1.2.3.3.4h.2c0,.1.1.2.2.3h.2c0,.1.1.2.2.3h.2c.1.1.2.3.3.4h.2c0,.1.1.2.2.3h.2c.1.1.2.3.3.4h.2c.1.1.2.3.3.4h.2c.1.1.2.3.3.4h.2c.1.1.2.3.3.4h.2c.1.1.2.3.3.4h.2c.1.2.3.3.4.5h.2c.2.2.3.4.5.6.1,0,.2,0,.3.1.3.3.5.6.8.9.3.3.6.5.9.8v.2c.2.2.4.3.6.5v.2c.1,0,.3.2.4.3,0,0,0,.2.1.3,0,0,.1,0,.2,0v.2c0,0,.1,0,.2,0,0,0,0,.2.1.3h.1v.2c0,0,.1,0,.2,0,0,0,0,.2.1.3h.1c0,.2.1.4.2.6,0,0,.1,0,.2,0,0,.1,0,.3.1.4h.1c0,.1,0,.3.1.4h.1v.3h.1c0,.1,0,.3.1.4h.1c0,.2,0,.4.1.6h.1v.2h.1c0,.2,0,.5.1.7h.1v.3h.1c0,.3,0,.6.1.9h.1v.7h.1v1h.1c0,.9,0,1.7-.1,2.6h-.1c-.1.6-.2,1.2-.3,1.8h-.1v.3h-.1v.2h-.1v.3h-.1v.3h-.1c0,.2-.1.4-.2.6h-.1v.2h-.1c0,.2-.1.4-.2.6h-.2c0,.2,0,.4-.1.5,0,0-.1,0-.2,0v.2c0,0-.1,0-.2,0v.2c0,0-.1,0-.2,0,0,0,0,.2-.1.3-.1,0-.3.2-.4.3-1.6,2.2-4.2,3.6-6.8,4.7-.2,0-.4,0-.6,0h0c0,0-.3,0-.3,0h0c0,0-.3,0-.3,0h0c0,0-.3,0-.3,0h0c0,0-.3,0-.3,0h0c0,0-.3,0-.3,0h0c0,0-.4,0-.4,0h0c0,0-.4,0-.4,0h0c0,0-.4,0-.4,0h0c0,0-.4,0-.4,0h0c-1.3.3-2.7.5-4,.7h-1.7c-.5.2-2.6,0-2.9,0-.6-.2-1.5,0-2,0h-1.3c0,0-1.1,0-1.1,0h0c-.9-.2-1.9-.2-2.8-.3h0c0,0-.7,0-.7,0h0c0,0-.7,0-.7,0h0c0,0-.7,0-.7,0-1.2-.3-2.6-.5-3.7-.8h-.5c0,0-.4,0-.4,0h0c0,0-.5,0-.5,0h0c0,0-.4,0-.4,0h0c-.3-.2-.6,0-.8-.3-.1-.1,0,0-.1-.2-.2-.2,0-.7-.1-1h-.1v-1h-.1v-1h-.1v-1h-.1v-1h-.1v-1h-.1v-1h-.1v-1h-.1v-1h-.1v-1h-.1c0-.4,0-.9-.1-1.3.6.2,1.2.4,1.8.6h0c0,0,.2,0,.2,0h0c.2.1.4.2.6.2h0c0,0,.2,0,.2,0h0c.3.2.6.2.9.3h0c0,0,.3,0,.3,0h0c0,0,.2,0,.2,0h0c.2.1.4.2.6.2h0c.3.2.7.2,1,.3h0c0,0,.3,0,.3,0h0c0,0,.3,0,.3,0h0c.2.1.5.2.7.2h0c0,0,.4,0,.4,0,.8.3,1.8.5,2.6.7.4,0,.8,0,1.2,0h0c.5.1,1,.2,1.5.2h0c0,0,1.4,0,1.4,0,.3,0,1.6.2,2.1,0h0c0,0,1.3,0,1.3,0h0c0,0,.7,0,.7,0h0c0,0,.5,0,.5,0h0c0,0,.5,0,.5,0,.7-.3,1.5-.5,2.2-.8,0,0,0-.1.1-.2.1,0,.3,0,.4,0,0,0,.1-.2.2-.3h.2c.1-.1.2-.3.3-.4.2-.1.3-.3.5-.4v-.2c.1,0,.2-.1.3-.2,0-.1,0-.3.1-.4h.1c0-.2.1-.4.2-.6h.1v-.3h.1v-.3h.1v-.6h.1c.1-.5-.2-2-.3-2.3h-.1v-.2h-.1v-.3c0,0-.1,0-.2,0,0-.2-.1-.4-.2-.6-.1,0-.2-.1-.3-.2v-.2c-.1,0-.3-.2-.4-.3v-.2c0,0-.1,0-.2,0-.2-.2-.4-.5-.6-.7h-.2c-.2-.2-.3-.4-.5-.6h-.2c-.1-.2-.3-.3-.4-.5h-.2c0,0-.1-.2-.2-.3h-.2c0,0-.1-.2-.2-.3h-.2c-.1-.1-.2-.3-.3-.4h-.2c-.1-.1-.2-.3-.3-.4h-.2c0,0,0-.1-.1-.2-.1,0-.2,0-.3,0-.1-.1-.2-.3-.3-.4h-.2c-.1-.1-.2-.3-.3-.4h-.2c-.1-.1-.2-.3-.3-.4h-.2c-.1-.1-.2-.3-.3-.4h-.2c0-.1-.1-.2-.2-.3h-.2c0,0,0-.1-.1-.2h-.1c0,0,0-.1-.1-.2h-.2c-.1-.1-.2-.3-.3-.4h-.2c-.1-.1-.2-.3-.3-.4h-.2c0-.1-.1-.2-.2-.3h-.2c-.1-.1-.2-.3-.3-.4h-.2c-.1-.1-.2-.3-.3-.4h-.2c-.1-.2-.3-.3-.4-.5-2.8-2-5.2-4.3-7-7.2,0-.2-.1-.4-.2-.6h-.1v-.2h-.1c0-.2-.1-.4-.2-.6h-.1v-.3h-.1v-.2h-.1c-.2-.8-.5-1.7-.7-2.5v-.8h-.1c-.1-.5,0-2.4.1-2.7v-.8h.1v-.5h.1v-.4h.1v-.4h.1c0-.3.1-.6.2-.9h.1v-.2h.1v-.3h.1c0-.2.1-.4.2-.6h.1v-.2h.1v-.2h.1c0-.2.1-.4.2-.6,0,0,.1,0,.2,0,0-.1,0-.3.1-.4,0,0,.1,0,.2,0v-.2c0,0,.1,0,.2,0v-.2c.1,0,.2-.1.3-.2v-.2c.1,0,.3-.2.4-.3v-.2c.2-.2.4-.3.6-.5.2-.3.5-.5.7-.8h.2c.1-.1.2-.3.3-.4h.2c0,0,.1-.2.2-.3h.2c0,0,0-.1.1-.2.1,0,.2,0,.3,0h0c0,0,.2,0,.2,0,0,0,0-.1.1-.2.2,0,.4-.1.6-.2,0,0,0-.1.1-.2.1,0,.3,0,.4,0h0c.1-.1.3-.2.4-.2h0c0,0,.3,0,.3,0h0c.1-.1.3-.2.4-.2h0c.3-.2.6-.2.9-.3h0c0-.1.2-.1.2-.1h0c0-.1.4-.1.4-.1h0c0-.1.3-.1.3-.1h0c0-.1.3-.1.3-.1h0c0-.1.4-.1.4-.1h0c0-.1.4-.1.4-.1h0c0-.1.4-.1.4-.1h0c0-.1.4-.1.4-.1h0c0-.1.5-.1.5-.1h0c0-.1.5-.1.5-.1h0c0-.1.6-.1.6-.1h0c0,0,.7,0,.7,0h0c0,0,.8,0,.8,0h0c0,0,1.1,0,1.1,0h0c0,0,1.7,0,1.7,0h0c0-.1,3.3-.1,3.3-.1h0c.6.3,1.6,0,2.2.2h1.5c0,0,1.1,0,1.1,0h0c0,0,1.1,0,1.1,0h0c0,.1.9.1.9.1h0c0,.1.8.1.8.1h0c0,.1.8.1.8.1,1.9.3,3.7.6,5.6.9h0Z"/>
    <path class="st1" d="M378,1.7c.2,3.7.5,7.4.7,11-.5-.1-1.1-.4-1.5-.6-.2,0-.4,0-.6-.1h0c0-.1-.3-.1-.3-.1h0c0-.1-.3-.1-.3-.1h0c0-.1-.3-.1-.3-.1h0c-.2-.1-.5-.2-.7-.2h0c-.2-.1-.5-.2-.7-.2h0c0-.1-.4-.1-.4-.1h0c0-.1-.4-.1-.4-.1h0c0-.1-.5-.1-.5-.1h0c0-.1-.4-.1-.4-.1h0c0-.1-.6-.1-.6-.1-3.1-.9-8.5-.6-11.1.4h-.3c0,.1-.2.1-.2.1h0c0,.1-.2.1-.2.1h0c0,.1-.2.1-.2.1h0c0,.1-.2.1-.2.1h0c0,.1-.2.1-.2.1,0,0,0,.1-.1.2h-.2c0,.1-.1.2-.2.3h-.2c0,.1-.1.2-.2.3h-.1v.2c-.1.1-.3.2-.4.3v.2h-.1c0,.2-.1.4-.2.6h-.1v.3c-.1.3-.5,1.3-.3,1.8h.1v.6h.1v.4h.1v.3h.1v.2h.1c0,.2.1.4.2.6,0,0,.1,0,.2.1v.2c0,0,.1,0,.2.1v.2c.1.1.3.2.4.3v.2c.3.3.6.5.9.8.2.2.3.4.5.6h.2c.1.2.3.3.4.5h.2c.1.1.2.3.3.4.1,0,.2,0,.3.1,0,0,0,.1.1.2h.2c.1.1.2.3.3.4.1,0,.2,0,.3.1,0,0,0,.1.1.2h.2c0,.1.1.2.2.3h.2c0,.1.1.2.2.3h.2c.1.1.2.3.3.4.1,0,.2,0,.3.1,0,0,0,.1.1.2h.2c0,.1.1.2.2.3h.2c0,.1.1.2.2.3h.2c0,.1.1.2.2.3h.2c.1.1.2.3.3.4h.2c0,.1.1.2.2.3h.2c0,.1.1.2.2.3h.2c.1.1.2.3.3.4h.2c0,.1.1.2.2.3h.2c.1.1.2.3.3.4h.2c.1.1.2.3.3.4h.2c.1.1.2.3.3.4h.2c.1.1.2.3.3.4h.2c.1.1.2.3.3.4h.2c.1.2.3.3.4.5h.2c.2.2.3.4.5.6.1,0,.2,0,.3.1.3.3.5.6.8.9.3.3.6.5.9.8v.2c.2.2.4.3.6.5v.2c.1,0,.3.2.4.3,0,0,0,.2.1.3,0,0,.1,0,.2,0v.2c0,0,.1,0,.2,0,0,0,0,.2.1.3h.1v.2c0,0,.1,0,.2,0,0,0,0,.2.1.3h.1c0,.2.1.4.2.6,0,0,.1,0,.2,0,0,.1,0,.3.1.4h.1c0,.1,0,.3.1.4h.1v.3h.1c0,.1,0,.3.1.4h.1c0,.2,0,.4.1.6h.1v.2h.1c0,.2,0,.5.1.7h.1v.3h.1c0,.3,0,.6.1.9h.1v.7h.1v1h.1c0,.9,0,1.7-.1,2.6h-.1c-.1.6-.2,1.2-.3,1.8h-.1v.3h-.1v.2h-.1v.3h-.1v.3h-.1c0,.2-.1.4-.2.6h-.1v.2h-.1c0,.2-.1.4-.2.6,0,0-.1,0-.2,0,0,.1,0,.3-.1.4,0,0-.1,0-.2,0v.2c0,0-.1,0-.2,0v.2c0,0-.1,0-.2,0,0,0,0,.2-.1.3-.1,0-.3.2-.4.3-1.6,2.2-4.2,3.6-6.8,4.7-.2,0-.4,0-.6,0h0c0,0-.3,0-.3,0h0c0,0-.3,0-.3,0h0c0,0-.3,0-.3,0h0c0,0-.3,0-.3,0h0c0,0-.3,0-.3,0h0c0,0-.4,0-.4,0h0c0,0-.4,0-.4,0h0c0,0-.4,0-.4,0h0c0,0-.4,0-.4,0h0c-1.3.3-2.7.5-4,.7h-1.7c-.5.2-2.5,0-2.9,0-.6-.2-1.5,0-2,0h-1.3c0,0-1.1,0-1.1,0h0c-.9-.2-1.9-.2-2.8-.3h0c0,0-.7,0-.7,0h0c0,0-.7,0-.7,0h0c0,0-.7,0-.7,0-1.2-.3-2.6-.5-3.7-.8h-.5c0,0-.4,0-.4,0h0c0,0-.5,0-.5,0h0c0,0-.4,0-.4,0h0c-.3-.2-.6,0-.8-.3-.1-.1,0,0-.1-.2-.2-.2,0-.7-.1-1h-.1v-1h-.1v-1h-.1v-1h-.1v-1h-.1v-1h-.1v-1h-.1v-1h-.1v-1h-.1v-1h-.1c0-.4,0-.9-.1-1.3.6.2,1.2.4,1.8.6h0c0,0,.2,0,.2,0h0c.2.1.4.2.6.2h0c0,0,.2,0,.2,0h0c.3.2.6.2.9.3h0c0,0,.3,0,.3,0h0c0,0,.2,0,.2,0h0c.2.1.4.2.6.2h0c.3.2.7.2,1,.3h0c0,0,.3,0,.3,0h0c0,0,.3,0,.3,0h0c.2.1.5.2.7.2h0c0,0,.4,0,.4,0,.8.3,1.8.5,2.6.7.4,0,.8,0,1.2,0h0c.5.1,1,.2,1.5.2h0c0,0,1.4,0,1.4,0,.3,0,1.6.2,2.1,0h0c0,0,1.3,0,1.3,0h0c0,0,.7,0,.7,0h0c0,0,.5,0,.5,0h0c0,0,.5,0,.5,0,.7-.3,1.5-.5,2.2-.8,0,0,0-.1.1-.2.1,0,.3,0,.4,0,0,0,.1-.2.2-.3h.2c.1-.1.2-.3.3-.4.2-.1.3-.3.5-.4v-.2c.1,0,.2-.1.3-.2,0-.1,0-.3.1-.4h.1c0-.2.1-.4.2-.6h.1v-.3h.1v-.3h.1v-.6h.1c.1-.5-.2-2-.3-2.3h-.1v-.2h-.1v-.3c0,0-.1,0-.2,0,0-.2-.1-.4-.2-.6-.1,0-.2-.1-.3-.2v-.2c-.1,0-.3-.2-.4-.3v-.2c0,0-.1,0-.2,0-.2-.2-.4-.5-.6-.7h-.2c-.2-.2-.3-.4-.5-.6h-.2c-.1-.2-.3-.3-.4-.5h-.2c0,0-.1-.2-.2-.3h-.2c0,0-.1-.2-.2-.3h-.2c-.1-.1-.2-.3-.3-.4h-.2c-.1-.1-.2-.3-.3-.4h-.2c0,0,0-.1-.1-.2-.1,0-.2,0-.3,0-.1-.1-.2-.3-.3-.4h-.2c-.1-.1-.2-.3-.3-.4h-.2c-.1-.1-.2-.3-.3-.4h-.2c-.1-.1-.2-.3-.3-.4h-.2c0-.1-.1-.2-.2-.3h-.2c0,0,0-.1-.1-.2h-.1c0,0,0-.1-.1-.2h-.2c-.1-.1-.2-.3-.3-.4h-.2c-.1-.1-.2-.3-.3-.4h-.2c0-.1-.1-.2-.2-.3h-.2c-.1-.1-.2-.3-.3-.4h-.2c-.1-.1-.2-.3-.3-.4h-.2c-.1-.2-.3-.3-.4-.5-2.7-2-5.2-4.3-7-7.2,0-.2-.1-.4-.2-.6h-.1v-.2h-.1c0-.2-.1-.4-.2-.6h-.1v-.3h-.1v-.2h-.1c-.2-.8-.5-1.7-.7-2.5v-.8h-.1c-.1-.5,0-2.4.1-2.7v-.8h.1v-.5h.1v-.4h.1v-.4h.1c0-.3.1-.6.2-.9h.1v-.2h.1v-.3h.1c0-.2.1-.4.2-.6h.1v-.2h.1v-.2h.1c0-.2.1-.4.2-.6,0,0,.1,0,.2,0,0-.1,0-.3.1-.4,0,0,.1,0,.2,0v-.2c0,0,.1,0,.2,0v-.2c.1,0,.2-.1.3-.2v-.2c.1,0,.3-.2.4-.3v-.2c.2-.2.4-.3.6-.5.2-.3.5-.5.7-.8h.2c.1-.1.2-.3.3-.4h.2c0,0,.1-.2.2-.3h.2c0,0,0-.1.1-.2.1,0,.2,0,.3,0h0c0,0,.2,0,.2,0,0,0,0-.1.1-.2.2,0,.4-.1.6-.2,0,0,0-.1.1-.2.1,0,.3,0,.4,0h0c.1-.1.3-.2.4-.2h0c0,0,.3,0,.3,0h0c.1-.1.3-.2.4-.2h0c.3-.2.6-.2.9-.3h0c0-.1.2-.1.2-.1h0c0-.1.4-.1.4-.1h0c0-.1.3-.1.3-.1h0c0-.1.3-.1.3-.1h0c0-.1.4-.1.4-.1h0c0-.1.4-.1.4-.1h0c0-.1.4-.1.4-.1h0c0-.1.4-.1.4-.1h0c0-.1.5-.1.5-.1h0c0-.1.5-.1.5-.1h0c0-.1.6-.1.6-.1h0c0,0,.7,0,.7,0h0c0,0,.8,0,.8,0h0c0,0,1.1,0,1.1,0h0c0,0,1.7,0,1.7,0h0c0-.1,3.3-.1,3.3-.1h0c.6.3,1.6,0,2.2.2h1.5c0,0,1.1,0,1.1,0h0c0,0,1.1,0,1.1,0h0c0,.1.9.1.9.1h0c0,.1.8.1.8.1h0c0,.1.8.1.8.1,1.9.3,3.7.6,5.6.9h0Z"/>
    <path class="st1" d="M63.9,1.4c1.3,0,3.2-.2,4.3.1,3.6,0,7.2,0,10.8-.1v.4h-.1v1.3h0v1.4h0v1.4h0v1.4h0v1.3h0v1.4h0v1.4h0v1.3h0v1.4h0v1.4h0v1.4h-.1v1.3h0c-.2,2.9-.3,5.8-.5,8.6h0c0,1,0,2.1,0,3.1v1.4h0c-.2.5,0,2,0,2.4v1.3h0c0,.4,0,.9,0,1.3h0v.4h0v.4h0v.4h0v.3h0c0,.2,0,.4,0,.6h.1c0,.1,0,.3,0,.4h0c0,.2,0,.3,0,.5,0,0,.1,0,.2,0,0,.1,0,.3,0,.4,0,0,.1,0,.2,0v.2c0,0,.2.1.3.2v.2c0,0,.2.1.3.2.2.2.4.5.6.7h.2c0,.1.2.3.3.4h.2c0,0,0,.1,0,.2.1,0,.3,0,.4,0,0,0,0,.1,0,.2.1,0,.3,0,.4,0h0c.2.2.4.2.6.3h0c0,0,.3,0,.3,0h0c0,0,.2,0,.2,0h0c0,0,.3,0,.3,0h0c0,0,.3,0,.3,0h0c0,0,.3,0,.3,0h0c0,0,.3,0,.3,0h0c0,0,.3,0,.3,0h0c0,0,.4,0,.4,0h0c0,0,.5,0,.5,0h0c0,0,.6,0,.6,0h0c0,0,.7,0,.7,0h0c.5.2,2.6,0,3,0h.8c0,0,.6,0,.6,0h0c0,0,.4,0,.4,0h0c0,0,.4,0,.4,0h0c0,0,.4,0,.4,0h0c0,0,.3,0,.3,0h0c0,0,.3,0,.3,0h0c0,0,.3,0,.3,0h0c0,0,.3,0,.3,0h0c0,0,.2,0,.2,0h0c0,0,.3,0,.3,0h0c.2-.2.4-.2.6-.3h0c0,0,.2,0,.2,0h0c.2-.2.4-.2.6-.3,0,0,0-.1,0-.2.1,0,.3,0,.4,0,0,0,0-.1,0-.2h.2c0,0,.1-.2.2-.3h.2c0,0,.1-.2.2-.3,2.2-1.5,3.3-3.8,4.4-6.4v-.3h0v-.3h0v-.3h0v-.4h0v-.4h0v-.4h0v-.4h0c.2-1.3.4-2.6.6-3.9v-.9h0v-1.1c0-.1,0,0,0-.1v-1.2h0v-1.5h0v-1.7h0v-2h0v-2.1c0-.1,0,0,0-.1v-2h0c0-1.1,0-2.3,0-3.4v-1.4h0v-3c.2-.7,0-1.8,0-2.7,0-1.2,0-2.4,0-3.6,1.3,0,3.2-.2,4.3.1,3.6,0,7.1,0,10.6-.1v.3h0v1.3h0v1.2h0v1.3h0v1.4h0v1.4h0v1.4h0v1.4h0c0,.7,0,1.4,0,2.1v1h0v1.5h0c0,.7,0,1.4,0,2.1v1.1h0v1.7h0v1.7h0c0,.8,0,1.6,0,2.4v1.1h0v1.8h0c-.2.5,0,1.4,0,1.9v2c-.2.6,0,1.5,0,2.1-.4,1.4,0,3.5-.3,4.9v3h-.1v3.4c-.2.8,0,2,0,3v.9c-.2.6,0,1.6,0,2.4,0,1.1,0,2.2,0,3.3-1.2,0-2.8.2-3.8,0-3.4,0-6.9,0-10.3,0,0-2.8,0-5.7,0-8.5h0v.2c-.4.3-.5.8-.8,1.2-.1,0-.2.1-.3.2v.2c0,0-.2.1-.3.2v.2c0,0-.1,0-.2,0v.2c0,0-.1,0-.2,0h0c0,.1-.1.2-.2.2v.2c-.1,0-.3.2-.4.3v.2c-.2.2-.4.3-.6.5-.3.4-.7.7-1,1.1h-.2c0,.1-.2.3-.3.4h-.2c0,0-.1.2-.2.3h-.2c0,0-.1.2-.2.3h-.2c0,0,0,.1,0,.2,0,0-.2,0-.3,0h0c0,0-.2,0-.2,0,0,0,0,.1,0,.2-.2,0-.4.1-.6.2,0,0,0,.1-.1.2-.8.3-1.5.7-2.3,1h-.3c0,0-.3,0-.3,0h0c0,0-.3,0-.3,0h0c0,0-.3,0-.3,0h0c0,0-.3,0-.3,0h0c-.3.1-.5.2-.8.2h0c0,0-.4,0-.4,0h0c0,0-.4,0-.4,0h0c0,0-.4,0-.4,0h0c0,0-.5,0-.5,0h0c0,0-.5,0-.5,0h0c-.4.1-.8.2-1.2.2h0c0,0-.8,0-.8,0h0c-.4.1-.8.2-1.2.2-6.2.3-11.6-.5-15.4-2.9-.1,0-.3,0-.4,0,0,0,0-.1,0-.2h-.2c0-.1-.2-.2-.3-.2,0,0,0-.1,0-.2h-.2c0,0-.1-.2-.2-.3h-.2c0-.1-.2-.3-.3-.4h-.2c-.3-.3-.6-.7-.9-1-.2-.2-.4-.3-.6-.5v-.2c-.2-.1-.3-.3-.5-.4v-.2c0,0-.1,0-.2,0v-.2c-.1,0-.2-.1-.3-.2,0-.1,0-.3,0-.4,0,0-.1,0-.2,0,0-.2-.1-.4-.2-.6h0v-.2h0c0-.2-.1-.4-.2-.6h0v-.3c-.9-2.1-1.2-4.5-1.2-7.5,0-1.3,0-2.5,0-3.8h0v-1.6h0c0-.7,0-1.4,0-2.1v-1.1h0v-1.7h0c0-.7,0-1.4,0-2.1v-1.1h0c.2-.5,0-1.4,0-1.9v-2.2c.2-.6,0-1.7,0-2.3h0v-2.3s0,0,0-.2v-2.1h0c0-1,0-2.1,0-3.1v-1.4c.2-.6,0-1.7,0-2.3.2-.6,0-1.5,0-2.2V1.4h0Z"/>
    <path class="st1" d="M279.6,1.4c1.3,0,3.5-.2,4.5.1,3.6,0,7.1,0,10.7-.1,0,.4.2.8.3,1.1v.4h.1v.4h.1v.4h.1v.4h.1v.3h.1v.4c.1.4.4,1.1.5,1.5v.4c.6,1.6,1,3.4,1.6,5v.4h.1v.3h.1v.3h.1c.1.4.2.9.3,1.3h.1c0,.3.1.7.2,1h.1v.4c1.2,3.4,2.1,7.1,3.3,10.5v.4h.1v.3h.1v.3h.1c0,.3.1.7.2,1h.1c0,.2,0,.5.1.7h.1v.4c.6,1.6,1,3.5,1.6,5.1.2.7.3,1.5.5,2.2h.1c.1.6.2,1.1.3,1.7h.1v.4h.1v.4h.1c0,.3,0,.6.1.9h.1c0,.3,0,.7.1,1h.1c.1.8.3,1.5.4,2.3h.2c0-.5.3-.8.4-1.2,0-.2,0-.4.1-.6h.1v-.3h.1v-.3h.1v-.3h.1v-.3h.1v-.2h.1v-.3h.1v-.3h.1v-.3h.1v-.3h.1v-.3h.1v-.2h.1c0-.3.1-.6.2-.9h.1v-.2h.1c0-.2,0-.4.1-.6h.1v-.2h.1c0-.2,0-.4.1-.6h.1v-.2h.1c0-.2,0-.4.1-.6h.1v-.2h.1c0-.2,0-.4.1-.6h.1v-.2h.1v-.3h.1v-.2h.1c0-.2,0-.4.1-.6h.1v-.2h.1v-.3h.1v-.2h.1c0-.2,0-.4.1-.6h.1v-.2h.1v-.3h.1v-.2h.1c0-.2,0-.3.1-.5h.1v-.3h.1v-.2h.1c0-.2,0-.4.1-.6,2-4.5,3.6-9.2,5.6-13.6v-.3h.1v-.2h.1v-.3h.1v-.2h.1v-.3h.1v-.2h.1v-.3h.1c0-.2,0-.3.1-.5h.1v-.2h.1v-.3h.1c0-.1,0-.3.1-.4h.1v-.3h.1v-.2h.1c0-.2,0-.3.1-.5h.1v-.3h.1v-.2h.1v-.3h.1c0-.2,0-.3.1-.5h.1v-.2h.1v-.3h.1c0-.1,0-.3.1-.4h.1v-.3h.1v-.2h.1v-.3h.1v-.2h.1v-.3h.1v-.2h.1v-.3h.1v-.2h.1v-.3h.1v-.2h.1c0-.2,0-.3.1-.5h.1c0-.2,0-.4.1-.6h.1v-.2h.1c0-.2,0-.3.1-.5h.1c0-.2,0-.4.1-.6h.1v-.2h.1c0-.2,0-.4.1-.6h.1v-.2h.1c0-.2,0-.4.1-.6h.1v-.2h.1v-.3c.1-.2.2-.4.3-.7,1.2,0,2.9-.2,4,.1,3.6,0,7.1,0,10.7-.1-.2.5-.4,1-.6,1.5h-.1v.3h-.1v.2h-.1c0,.1,0,.3-.1.4h-.1v.3h-.1v.2h-.1v.2h-.1v.2h-.1c0,.2,0,.3-.1.5h-.1c0,.1,0,.3-.1.4h-.1v.3h-.1v.2h-.1c0,.2-.1.4-.2.6h-.1v.3h-.1v.2h-.1c0,.1,0,.3-.1.4h-.1v.3h-.1v.2h-.1c0,.1,0,.3-.1.4h-.1v.3h-.1v.2h-.1v.2h-.1v.2h-.1c0,.2,0,.3-.1.5h-.1c0,.1,0,.3-.1.4h-.1v.3h-.1v.2h-.1c0,.1,0,.3-.1.4h-.1v.3h-.1v.2h-.1v.2h-.1v.2h-.1v.3h-.1v.2h-.1v.2h-.1c0,.1,0,.3-.1.4h-.1v.3h-.1v.2h-.1c0,.1,0,.3-.1.4h-.1v.3h-.1v.2h-.1v.2h-.1v.2h-.1v.3h-.1v.2h-.1c0,.1,0,.3-.1.4h-.1v.3h-.1v.2h-.1c0,.1,0,.3-.1.4h-.1v.3h-.1v.2h-.1v.2h-.1v.2h-.1v.3h-.1v.2h-.1c0,.2-.1.4-.2.6h-.1v.3h-.1v.2h-.1c0,.1,0,.3-.1.4h-.1v.3h-.1v.2h-.1c0,.1,0,.3-.1.4h-.1v.3h-.1v.2h-.1v.2h-.1v.2h-.1c0,.2,0,.3-.1.5h-.1c0,.1,0,.3-.1.4h-.1v.3h-.1v.2h-.1c0,.1,0,.3-.1.4h-.1v.3h-.1v.2h-.1c0,.1,0,.3-.1.4h-.1v.3h-.1v.2h-.1c0,.2-.1.4-.2.6h-.1v.3h-.1v.2h-.1c0,.1,0,.3-.1.4h-.1v.3h-.1v.2h-.1c0,.1,0,.3-.1.4h-.1v.3h-.1v.2h-.1v.2h-.1v.2h-.1c0,.2,0,.3-.1.5h-.1c0,.1,0,.3-.1.4h-.1v.3h-.1v.2h-.1c0,.1,0,.3-.1.4h-.1v.3h-.1v.2h-.1c0,.1,0,.3-.1.4h-.1v.3h-.1v.2h-.1c0,.2-.1.4-.2.6h-.1v.3h-.1v.2h-.1c0,.1,0,.3-.1.4h-.1v.3h-.1v.2h-.1c0,.1,0,.3-.1.4h-.1v.3h-.1v.2h-.1v.2h-.1v.2h-.1c0,.2,0,.3-.1.5h-.1c0,.1,0,.3-.1.4h-.1v.3h-.1v.2h-.1c0,.1,0,.3-.1.4h-.1v.3h-.1v.2h-.1v.2h-.1v.2h-.1v.3h-.1v.2h-.1v.2h-.1c0,.1,0,.3-.1.4h-.1v.3h-.1v.2h-.1c0,.1,0,.3-.1.4h-.1v.3h-.1v.2h-.1v.2h-.1v.2h-.1v.3h-.1v.2h-.1c0,.1,0,.3-.1.4h-.1v.3h-.1v.2h-.1c0,.1,0,.3-.1.4h-.1v.3h-.1v.2h-.1v.2h-.1v.2h-.1v.3h-.1v.2h-.1c0,.2-.1.4-.2.6h-.1v.3h-.1v.2h-.1c0,.1,0,.3-.1.4h-.1v.3h-.1v.2h-.1c0,.1,0,.3-.1.4h-.1v.3h-.1v.2h-.1c0,.1,0,.3-.1.4h-.1c-.1.4-.3.8-.4,1.2h-.1c0,.1,0,.3-.1.4h-.1v.3h-.1v.2h-.1c0,.1,0,.3-.1.4h-.1v.3h-.1c0,.1,0,.3-.1.4h-.1v.3h-.1v.2h-.1c0,.1,0,.3-.1.4h-.1c-.1.4-.3.8-.4,1.2h-.1c0,.1,0,.3-.1.4h-.1v.3h-.1c0,.1,0,.3-.1.4h-.1v.3h-.1v.2h-.1c0,.1,0,.3-.1.4h-.1v.3h-.1c0,.1,0,.3-.1.4h-.1v.3h-.1v.2h-.1c0,.1,0,.3-.1.4h-.1v.3h-.1v.2h-.1c0,.1,0,.3-.1.4h-.1c-.1.4-.3.8-.4,1.2h-.1c0,.1,0,.3-.1.4h-.1v.3h-.1c0,.1,0,.3-.1.4h-.1v.3h-.1v.2h-.1c0,.1,0,.3-.1.4h-.1v.3h-.1c0,.1,0,.3-.1.4h-.1v.3h-.1v.2h-.1c0,.1,0,.3-.1.4h-.1v.3h-.1c0,.1,0,.3-.1.4h-.1v.3h-.1v.2h-.1c0,.1,0,.3-.1.4h-.1v.3h-.1v.2h-.1c0,.1,0,.3-.1.4h-.1v.3h-.1c0,.1,0,.3-.1.4h-.1v.3h-.1v.2h-.1c0,.1,0,.3-.1.4h-.1v.3h-.1c0,.1,0,.3-.1.4h-.1v.3h-.1c0,.2-.1.4-.2.6h-.1v.2h-.1v.2h-.1v.2h-.1v.2h-.1v.2h-.1v.2h-.1v.2h-.1v.2h-.1v.2c0,0-.1,0-.2,0v.2h-.1v.2h-.1v.2h-.1v.2c0,0-.1,0-.2,0v.2h-.1v.2c0,0-.1,0-.2,0,0,.1,0,.3-.1.4h-.1c0,0,0,.2-.1.3,0,0-.1,0-.2,0v.2h-.1c0,0,0,.2-.1.3,0,0-.1,0-.2,0v.2c-.1,0-.2.1-.3.2v.2c-.1,0-.2.1-.3.2v.2c0,0-.1,0-.2,0h0c0,.1-.1.2-.2.2v.2c-.2.1-.3.3-.5.4v.2c-.3.3-.7.6-1,.9-.1.2-.3.3-.4.5h-.2c-.1.2-.3.3-.4.5h-.2c0,0-.1.2-.2.3h-.2c0,0,0,.1-.1.2-.1,0-.2,0-.3,0h0c0,0-.2,0-.2,0,0,0,0,.1-.1.2h-.2c0,0,0,.1-.1.2-.1,0-.2,0-.3,0h0c0,0-.2,0-.2,0h0c0,0-.2,0-.2,0h0c0,0-.2,0-.2,0h0c0,0-.2,0-.2,0,0,0,0,.1-.1.2h-.2c0,0-.2,0-.2,0h0c0,0-.3,0-.3,0h0c-.1.1-.3.2-.4.2h0c0,0-.3,0-.3,0h0c-.1.1-.3.2-.4.2h0c-.3.2-.6.2-.9.3h0c0,0-.2,0-.2,0h0c-.2.1-.5.2-.7.2h0c0,0-.3,0-.3,0h0c0,0-.3,0-.3,0h0c0,0-.4,0-.4,0h0c-.3.1-.5.2-.8.2h0c-1.1.3-2.2.4-3.3.6h-1.5c-.5.2-2,0-2.3,0h-1.6c0,0-1.2,0-1.2,0h0c0,0-1.1,0-1.1,0h0c0,0-.8,0-.8,0h0c0,0-.8,0-.8,0h0c0,0-.6,0-.6,0-.5-.2-1.2-.2-1.7-.4h-.5c0,0-.5,0-.5,0h0c-.3-.2-.6,0-.8-.3-.1-.1,0,0-.1-.2h-.1v-.8h-.1v-.9h-.1v-.8h-.1v-.8c-.3-.9-.2-2.2-.5-3.1v-.8h-.1v-.7h-.1v-.7h-.1v-.7c-.1-.5-.3-1.2-.3-1.8.2,0,.4.1.6.2h0c0,0,.3,0,.3,0h0c.1.1.3.2.4.2h0c0,0,.3,0,.3,0h0c0,0,.2,0,.2,0h0c0,0,.3,0,.3,0h0c0,0,.2,0,.2,0h0c1.2.4,2.3.8,3.5,1.1.8,0,1.7.2,2.5.3,1.9,0,3.4,0,4.7-.6.2,0,.4,0,.6,0h0c0,0,.2,0,.2,0h0c0,0,.3,0,.3,0h0c.2-.2.4-.2.6-.3h0c.1-.1.3-.2.4-.2h0c.1-.1.2-.2.3-.2,0,0,0-.1.1-.2h.2c.1-.2.3-.3.4-.5.3-.3.7-.6,1-.9v-.2c.1,0,.3-.2.4-.3v-.2c0,0,.1,0,.2,0v-.2c.1,0,.2-.1.3-.2v-.2c0,0,.1,0,.2,0v-.2c.1,0,.2-.1.3-.2v-.2c0,0,.1,0,.2,0,0,0,0-.2.1-.3h.1v-.2c0,0,.1,0,.2,0,0-.1,0-.3.1-.4h.1c0,0,0-.2.1-.3,0,0,.1,0,.2,0,0-.1,0-.3.1-.4,0,0,.1,0,.2,0,0-.1,0-.3.1-.4,0,0,.1,0,.2,0v-.2h.1v-.2h.1v-.2h.1v-.2c0,0,.1,0,.2,0,0-.1,0-.3.1-.4h.1v-.2h.1c0-.2.1-.4.2-.6h.1v-.3h.1c0-.1,0-.3.1-.4h.1v-.3h.1v-.2h.1c0-.2,0-.3.1-.5h.1c0-.2,0-.4.1-.6h.1v-.2h.1c0-.2.5-1.5.4-1.7h-.1c0-.2,0-.4-.1-.6h-.1v-.2h-.1v-.3h-.1v-.3h-.1v-.3h-.1v-.3h-.1c0-.3-.1-.6-.2-.9h-.1c0-.3-.1-.6-.2-.9h-.1v-.3h-.1v-.3h-.1v-.3h-.1v-.2h-.1c0-.2,0-.4-.1-.6h-.1v-.3h-.1v-.3h-.1v-.3h-.1v-.3h-.1v-.3c-.5-1.3-1-2.8-1.5-4.1-.2-.6-.3-1.2-.5-1.8h-.1v-.2h-.1c-.2-.7-.4-1.4-.6-2.1-.5-1.3-1-2.8-1.5-4.1-.2-.6-.3-1.2-.5-1.8h-.1v-.2h-.1c0-.2,0-.4-.1-.6h-.1v-.3h-.1v-.3h-.1v-.3h-.1v-.3h-.1v-.3h-.1v-.3h-.1c0-.2,0-.4-.1-.6h-.1c0-.2,0-.4-.1-.6h-.1v-.3h-.1v-.2h-.1v-.3h-.1v-.3h-.1v-.3h-.1v-.3h-.1v-.3h-.1v-.3h-.1v-.3h-.1v-.3h-.1v-.3h-.1c0-.2,0-.4-.1-.6h-.1c0-.2,0-.4-.1-.6h-.1v-.2h-.1c0-.2,0-.4-.1-.6h-.1c-.2-.7-.4-1.4-.6-2.1h-.1v-.2h-.1v-.3h-.1v-.3h-.1v-.3h-.1v-.3h-.1v-.3h-.1v-.2h-.1c0-.3-.1-.6-.2-.9h-.1v-.3h-.1v-.3h-.1v-.3h-.1v-.2h-.1c0-.3-.1-.6-.2-.9h-.1c0-.2,0-.4-.1-.6-1-2.3-1.7-5-2.7-7.3-.2-.6-.3-1.2-.5-1.8h-.1v-.2h-.1c0-.3-.1-.6-.2-.9-.2-.4-.4-1-.6-1.4v-.3h-.1v-.3h-.1v-.3h-.1v-.3h-.1v-.2h-.1v-.3h-.1v-.3h-.1v-.3h-.1v-.3h-.1v-.3h-.1v-.2h-.1c-.2-.6-.3-1.1-.5-1.7h.2Z"/>
    <path class="st1" d="M53.1,16.5v-.5c-.3-1-.7-2-1-3h0c0-.1,0-.3,0-.4h0v-.3h0c0-.2-.1-.4-.2-.6h0v-.2h0c0-.2-.1-.4-.2-.6,0,0-.1,0-.2-.1,0-.1,0-.3,0-.4,0,0-.1,0-.2-.1,0-.1,0-.3-.1-.4h0c0-.1,0-.2,0-.3,0,0-.1,0-.2-.1v-.2h0c0-.1,0-.2,0-.3,0,0-.1,0-.2-.1v-.2c0,0-.1,0-.2-.1,0-.1,0-.2,0-.3-.1-.1-.3-.2-.4-.3v-.2c-.2-.1-.3-.3-.5-.4v-.2c-.3-.3-.6-.5-.9-.8-.3-.3-.6-.7-.9-1h-.2c0-.1-.2-.3-.3-.4h-.2c0,0,0-.1,0-.2h0c0,0,0-.1,0-.2h-.2c0,0,0-.1,0-.2h-.2c0,0-.1-.2-.2-.3-.1,0-.3,0-.4,0,0,0,0-.1-.1-.2,0,0-.2,0-.3,0h0c-.1-.1-.3-.2-.4-.2,0,0,0-.1,0-.2-.2,0-.4-.1-.6-.2h0c0,0-.2,0-.2,0h0c0,0-.2,0-.2,0h0c-.2-.2-.4-.2-.6-.3h0c0,0-.3,0-.3,0h0c-.1-.1-.3-.2-.4-.2h0c-.2-.1-.4-.2-.6-.2h0c0-.1-.2-.1-.2-.1h0c-1.1-.4-2.1-.7-3.2-1h-.5c-.6-.2-1.5-.3-2.2-.5-.9,0-1.7-.1-2.6-.2h0c0,0-1.8,0-1.8,0-.4-.1-2.4-.2-2.9-.1h0c0,.1-1.7.1-1.7.1h0c0,0-1.1,0-1.1,0h0c0,0-.8,0-.8,0h0c-.6.2-1.3.2-1.9.3h0c0,.1-.5.1-.5.1h0c0,.1-.5.1-.5.1h0c0,.1-.4.1-.4.1h0c0,0-.5,0-.5,0h0c0,.1-.4.1-.4.1h0c-.4.2-.7.2-1.1.3h0c0,.1-.3.1-.3.1h0c0,.1-.3.1-.3.1h0c0,.1-.3.1-.3.1h0c0,.1-.3.1-.3.1h0c-.3.2-.6.2-.9.3h0c-.2.1-.3.2-.5.2h0c-.1.1-.3.2-.4.2h0c0,0-.2,0-.2,0h0c0,0-.3,0-.3,0h0c-.2.2-.4.2-.6.3h0c0,0-.2,0-.2,0h0c-.1.1-.3.2-.4.2,0,0,0,.1-.1.2-.2,0-.4.1-.6.2,0,0,0,.1-.1.2-.1,0-.3,0-.4.1,0,0,0,.1-.1.2h-.2c0,0,0,.1-.1.2h-.2c0,0,0,.1-.1.2h-.2c0,0,0,.1-.1.2h-.2c0,0-.1.2-.2.3h-.2c0,0-.1.2-.2.3h-.2c0,0-.1.2-.2.3h-.2c-.1.1-.2.3-.3.4-.1,0-.2,0-.3,0-.3.3-.6.7-.9,1h-.2c0,0-.1.2-.2.3,0,0-.1,0-.2,0v.2c-.3.3-.7.6-1,.9v.2c-.1.1-.3.2-.4.3v.2c-.1.1-.3.2-.4.3,0,.1,0,.2,0,.3,0,0-.1,0-.2.1v.2c0,0-.1,0-.2.1,0,.1,0,.2,0,.3h0v.2h-.2v.3c0,0-.1,0-.2.1v.2c0,0-.1,0-.2.1v.2c0,0-.1,0-.2.1,0,.1,0,.3-.1.4,0,0-.1,0-.2.1v.2h0v.2h0v.2h-.1v.2h0v.2c0,0-.1,0-.2.1,0,.1,0,.3,0,.4h0c0,.1,0,.3-.1.4h0v.3h0v.2h0c0,.1,0,.3,0,.4h-.1v.3h0c0,.1,0,.3,0,.4h0c-.4,1.3-.9,2.5-1.3,3.8,0,.3,0,.5-.1.8-.3.8-.4,1.9-.7,2.7,0,.7-.1,1.4-.2,2.1h0c0,.5,0,1.1,0,1.6v1.1c-.1.3-.2,2.2-.1,2.7h.1v1.6h0v1h0v.7h0c0,.6.1,1.2.2,1.8.4,1.4.7,2.7,1.1,4.1h.1v.2h.1c0,.3.1.6.2.9h0c0,.1,0,.3,0,.4h0v.3h.1c0,.1,0,.3,0,.4h0v.2h0c0,.3.2.6.3.9,0,0,.1,0,.2,0v.2h0v.2h.1v.2h0v.2c0,0,.1,0,.2,0,0,.1,0,.3,0,.4h0c0,0,0,.2.1.3,0,0,.1,0,.2,0v.2h0c0,0,0,.2,0,.3,0,0,.1,0,.2,0v.2c0,0,.2.1.3.2v.2c.1,0,.2.1.3.2v.2c.1,0,.3.2.4.3v.2c.2.2.5.4.7.6v.2c.1,0,.3.2.4.3.3.3.5.6.8.9h.2c.2.2.4.5.6.7h.2c.1.1.2.3.3.4h.2c0,0,.1.2.2.3h.2c0,0,.1.2.2.3h.2c0,0,0,.1.1.2h.2c0,0,0,.1.1.2h.2c0,0,0,.1.1.2h.2c0,0,0,.1.1.2h.2c0,0,0,.1.1.2.1,0,.3,0,.4,0,0,0,0,.1.1.2h.2c0,0,.2,0,.2,0h0c0,0,.2,0,.2,0h0c0,0,.2,0,.2,0h0c0,0,.2,0,.2,0h0c0,0,.2,0,.2,0h0c0,0,.2,0,.2,0h0c.2.2.4.2.6.3h0c0,0,.3,0,.3,0h0c.1.1.3.2.4.2h0c.2.1.4.2.6.2h0c0,0,.2,0,.2,0h0c1.1.4,2.1.7,3.2,1h.5c.6.2,1.5.3,2.2.5.7,0,1.5.1,2.2.2h0c0,0,1.1,0,1.1,0h0c0,0,1.3,0,1.3,0h0c0,0,2.2,0,2.2,0,1.1.3,3,0,4.1,0,1.1,0,2.3,0,3.4,0h0c0,0,1.2,0,1.2,0h0c0,0,1,0,1,0h0c0,0,.8,0,.8,0h0c0,0,.8,0,.8,0,.8-.2,1.8-.3,2.5-.5h.6c.8-.2,1.9-.3,2.7-.6h.5c.4-.2.7,0,.9-.3.5,0,.4,0,.7-.2,0-.9.2-1.8.4-2.5v-.6c.2-.7.3-1.7.5-2.4,0-.4,0-.8,0-1.2.4-1.3.5-2.9.9-4.2h0c-.2,0-.2,0-.4,0h0c0,0-.3,0-.3,0h0c0,0-.3,0-.3,0h0c0,0-.3,0-.3,0h0c0,0-.3,0-.3,0h0c-.3.2-.7.2-1,.3h0c0,0-.4,0-.4,0h0c0,0-.3,0-.3,0h0c0,0-.3,0-.3,0h0c-.2.1-.5.2-.7.2h0c-.4.2-.7.2-1.1.3h0c-.3.1-.5.2-.8.2h0c-.4.2-.8.2-1.2.3h0c0,0-.5,0-.5,0h0c-.3.1-.6.2-.9.2h0c0,0-.4,0-.4,0h0c0,0-.6,0-.6,0h0c0,0-.5,0-.5,0h0c0,0-.6,0-.6,0h0c0,0-.6,0-.6,0h0c0,0-.6,0-.6,0h0c-.9.2-1.8.2-2.7.3h0c0,0-1.7,0-1.7,0-.3,0-1.7.2-2.2,0h0c0,0-1.3,0-1.3,0h0c0,0-.7,0-.7,0h0c0,0-.6,0-.6,0h0c0,0-.6,0-.6,0-1.1-.3-2.1-.6-3.2-.9h0c0,0-.2,0-.2,0h0c0,0-.3,0-.3,0h0c-.2-.2-.4-.2-.6-.3h0c0,0-.2,0-.2,0h0c0,0-.2,0-.2,0h0c0,0-.2,0-.2,0h0c0,0-.2,0-.2,0h0c0,0-.2,0-.2,0h0c0,0-.2,0-.2,0,0,0,0-.1-.1-.2-.1,0-.3,0-.4,0,0,0,0-.1-.1-.2h-.2c0,0-.1-.2-.2-.3h-.2c0,0-.1-.2-.2-.3h-.2c-.1-.2-.3-.3-.4-.5h-.2c-.2-.3-.5-.5-.7-.8-.1,0-.2-.1-.3-.2v-.2c-.2-.1-.3-.3-.5-.4v-.2c-.1,0-.2-.1-.3-.2v-.2c-.1,0-.2-.1-.3-.2v-.2c0,0-.1,0-.2,0,0-.1,0-.3-.1-.4,0,0-.1,0-.2,0,0-.2-.1-.4-.2-.6h-.1v-.2h-.1c0-.2-.1-.4-.2-.6h-.1v-.3h-.1v-.2h-.1v-.3h-.1v-.2h-.1c0-.2,0-.5-.1-.7h-.1v-.3h-.1v-.4h-.1v-.4h-.1v-.4h-.1c0-.4,0-.9-.1-1.3h-.1v-1.2c-.1-.4-.2-1.9-.1-2.4h.1v-1.7h38.4c0-.5.2-1,.3-1.4v-.8h0v-1h0v-2.3c0-2.1-.2-4.1-.7-5.7h0ZM15.3,21.6c.1-.3,0-.7.2-1h.1v-.4h.1c0-.3,0-.5.1-.8h.1c0-.3,0-.5.1-.8h.1v-.3h.1v-.3h.1v-.3h.1c0-.2,0-.4.1-.6h.1c0-.2.1-.4.2-.6h.1v-.2h.1v-.2h.1v-.2h.1v-.2h.1v-.2h.1v-.2c0,0,.1,0,.2-.1,0-.1,0-.3.1-.4,0,0,.1,0,.2-.1v-.2h.2v-.3c0,0,.1,0,.2-.1,0-.1,0-.2.1-.3.2-.1.3-.3.5-.4v-.2c.3-.2.5-.5.8-.7,0-.1.1-.2.2-.3h.2c.1-.2.3-.3.4-.5h.2c0-.1.1-.2.2-.3h.2c0,0,0-.1.1-.2h.2c0,0,0-.1.1-.2.1,0,.2,0,.3-.1h0c.2-.2.4-.2.6-.3,0,0,0-.1.1-.2h.2c0-.1.2-.1.2-.1h0c0-.1.3-.1.3-.1h0c.1-.1.3-.2.4-.2h0c0-.1.3-.1.3-.1h0c0-.1.2-.1.2-.1h0c0-.1.3-.1.3-.1h0c0-.1.3-.1.3-.1h0c0-.1.3-.1.3-.1h0c.4-.2.9-.2,1.3-.3,1.7-.5,4.5-.3,6,.2h.4c.7.3,1.5.6,2.2.9,0,0,0,.1,0,.2.1,0,.3,0,.4.1,0,.1.1.2.2.3h.2c0,.1.1.2.2.3h.2c0,.1.2.3.3.4.3.2.5.5.8.7v.2c0,0,.2.1.3.2v.2c0,0,.1,0,.2.1,0,.1,0,.2,0,.3h0v.2c0,0,.1,0,.2.1,0,.1,0,.3,0,.4h0c0,.1,0,.3,0,.4h0v.3h0v.2h0c0,.2,0,.4,0,.6h.1v.3c.6,1.6.7,3.5.7,5.8H15.3Z"/>
    <path class="st1" d="M78.7,66.3h14.3v14.3h-14.3v-14.3h0Z"/>
    <path class="st0" d="M399.9,66.2h14.5v14.5h-14.5v-14.5h0Z"/>
    <path class="st0" d="M360.8,66.2h14.5v14.5h-14.5v-14.5h0Z"/>
    <path class="st0" d="M320.2,66.2h14.5v14.5h-14.5v-14.5h0Z"/>
    <path class="st1" d="M239.6,66.2h14.5v14.5h-14.5v-14.5h0Z"/>
    <path class="st1" d="M199.1,66.2h14.6v14.5h-14.6v-14.5h0Z"/>
    <path class="st1" d="M158.9,66.2h14.5v14.5h-14.5v-14.5h0Z"/>
    <path class="st1" d="M118.8,66.2h14.5v14.5h-14.5v-14.5h0Z"/>
    <path class="st1" d="M227.7,25.3h-.1c0-.8,0-1.7-.1-2.5h-.1v-.7h-.1v-.7h-.1c0-.3,0-.7-.1-1h-.1v-.5h-.1v-.4h-.1v-.4h-.1v-.4h-.1v-.4h-.1v-.3h-.1v-.4h-.1v-.3h-.1v-.3h-.1v-.3h-.1v-.3h-.1v-.2h-.1c0-.2,0-.4-.1-.6h-.1v-.2h0v-.3h-.1v-.2h-.1c0-.2,0-.3-.1-.5h-.1c0-.2-.1-.4-.2-.6h-.1v-.2h-.1v-.2h-.1c0-.2-.1-.4-.2-.6,0,0-.1,0-.2-.1,0-.2-.1-.4-.2-.6h-.1c0-.1,0-.2-.1-.3,0,0-.1,0-.2-.1v-.2c0,0-.1,0-.2-.1v-.2c0,0-.1,0-.2-.1v-.2h-.1c0-.1,0-.2-.1-.3,0,0-.1,0-.2-.1v-.2c-.1,0-.2-.1-.3-.2v-.2c-.1-.1-.3-.2-.4-.3v-.2c-.2-.2-.4-.3-.6-.5v-.2c-.3-.2-.5-.5-.8-.7-.3-.3-.5-.6-.8-.9-.1,0-.2,0-.3,0-.1-.2-.3-.3-.4-.5h-.2c-.1-.1-.2-.3-.3-.4h-.2c0,0-.1-.2-.2-.3h-.2c0,0-.1-.2-.2-.3h-.2c0,0,0-.1-.1-.2-.1,0-.2,0-.3,0h0c0,0-.2,0-.2,0,0,0,0-.1-.1-.2h-.2c0,0,0-.1-.1-.2h-.2c0,0,0-.1-.1-.2h-.2c0,0-.2,0-.2,0,0,0,0-.1-.1-.2-.2,0-.4-.1-.6-.2,0,0,0-.1-.1-.2-.2,0-.4-.1-.6-.2h0c0,0-.2,0-.2,0h0c-.2-.2-.4-.2-.6-.3h0c0,0-.3,0-.3,0h0c-.1-.1-.3-.2-.4-.2h0c0,0-.3,0-.3,0h0c-.1-.1-.3-.2-.4-.2h0c-.2-.1-.4-.2-.6-.2h0c0,0-.2,0-.2,0h0c-.2-.1-.4-.2-.6-.2h0c0,0-.3,0-.3,0h0c0-.1-.3-.1-.3-.1h0c0-.1-.3-.1-.3-.1h0c-.2-.1-.5-.2-.7-.2h0c0-.1-.4-.1-.4-.1h0c0-.1-.3-.1-.3-.1h0c0-.1-.4-.1-.4-.1h0c0-.1-.4-.1-.4-.1h0c0-.1-.4-.1-.4-.1h0c0-.1-.5-.1-.5-.1h0c0-.1-.5-.1-.5-.1h0c-.4-.1-.7-.2-1.1-.2-.6-.2-1.5-.2-2.1-.4h-1.1c0,0-1.7,0-1.7,0-.7-.2-1.9-.1-2.8-.1-.2.2-.8,0-1.2.1-.8,0-1.5.1-2.3.2h0c0,.1-.7.1-.7.1h0c0,.1-.6.1-.6.1h0c0,.1-.6.1-.6.1h0c0,.1-.5.1-.5.1h0c0,.1-.4.1-.4.1h0c0,0-.5,0-.5,0h0c-.3.1-.5.2-.8.2h0c0,.1-.4.1-.4.1h0c-.2.1-.5.2-.7.2h0c0,.1-.3.1-.3.1h0c0,.1-.4.1-.4.1h0c0,.1-.3.1-.3.1h0c0,.1-.3.1-.3.1h0c0,.1-.3.1-.3.1h0c0,0-.3,0-.3,0h0c0,0-.2,0-.2,0h0c-.3.2-.6.2-.9.3h0c0,0-.2,0-.2,0h0c0,0-.3,0-.3,0h0c-.1.1-.3.2-.4.2h0c0,0-.3,0-.3,0h0c-.2.2-.4.2-.6.3h0c0,0-.2,0-.2,0h0c-.3.2-.6.3-.9.4,0,0,0,.1-.1.2h-.2c0,0-.2,0-.2,0h0c0,0-.2,0-.2,0h0c0,0-.2,0-.2,0h0c0,0-.2,0-.2,0,0,0,0,.1-.1.2-.1,0-.3,0-.4,0,0,0,0,.1-.1.2-.1,0-.2,0-.3,0h0c-.1.1-.3.2-.4.2h0c-.1.1-.2.2-.3.2,0,0,0,.1-.1.2h-.2c0,0-.1.2-.2.3h-.2c0,0,0,.1-.1.2h-.2c0,0,0,.1-.1.2h-.1c0,0,0,.1-.1.2h-.2c-.1.1-.2.3-.3.4h-.2c-.2.2-.3.4-.5.6h-.2c-.3.4-.7.7-1,1.1-.2.2-.4.3-.6.5v.2c-.2.2-.5.4-.7.6v.2c-.1.1-.3.2-.4.3v.2c-.1.1-.3.2-.4.3v.2c-.1,0-.2.1-.3.2v.2c0,0-.1,0-.2.1v.2h-.1c0,.1,0,.2-.1.3-.1,0-.2.1-.3.2,0,.1,0,.3-.1.4,0,0-.1,0-.2.1,0,.1,0,.2-.1.3h-.1c0,.1,0,.3-.1.4,0,0-.1,0-.2.1,0,.2-.1.4-.2.6,0,0-.1,0-.2.1,0,.1,0,.3-.1.4h-.1v.2h-.1c0,.2-.1.4-.2.6h-.1v.3h-.1v.2h-.1c0,.1,0,.3-.1.4h-.1v.3h-.1v.2h-.1v.3h-.1v.2h-.1c0,.3-.1.6-.2.9h-.1v.3h-.1v.3h-.1v.3h-.1v.3h-.1c0,.4-.1.7-.2,1.1h-.1v.4h-.1c0,.3,0,.6-.1.9h-.1c-.1.8-.2,1.5-.3,2.3h-.1v.8h-.1v1h-.1v1.6c0,.3-.2,2.1-.1,2.6h.1v1.6h.1v.9h.1v.8h.1v.6h.1v.5h.1v.5h.1v.5h.1v.4h.1v.4h.1v.4h.1v.4h.1v.3h.1v.3h.1c0,.3.1.7.2,1h.1v.2h.1c0,.2,0,.4.1.6h.1v.2h.1v.3h.1v.2h.1v.3h.1c0,.1,0,.3.1.4h.1v.2h.1v.3h.1c0,.2.1.4.2.6h.1c0,.1,0,.3.1.4,0,0,.1,0,.2,0v.2h.1v.2h.1v.2h.1v.2c0,0,.1,0,.2,0,0,.1,0,.3.1.4h.1c0,0,0,.2.1.3,0,0,.1,0,.2,0v.2h.1c0,0,0,.2.1.3,0,0,.1,0,.2,0v.2c.1,0,.2.1.3.2v.2c.1,0,.2.1.3.2v.2c.1,0,.2.1.3.2v.2c.2.2.4.3.6.5v.2c.4.4.8.7,1.2,1.1.3.3.6.7.9,1h.2c.1.2.3.3.4.5h.2c.1.1.2.3.3.4h.2c0,0,.1.2.2.3h.2c0,0,0,.1.1.2h.2c0,0,.1.2.2.3h.2c0,0,0,.1.1.2h.2c0,0,0,.1.1.2.1,0,.3,0,.4,0,0,0,0,.1.1.2.1,0,.3,0,.4,0,0,0,0,.1.1.2.2,0,.4.1.6.2,0,0,0,.1.1.2.1,0,.3,0,.4,0h0c0,0,.2,0,.2,0h0c.2.2.4.2.6.3h0c0,0,.3,0,.3,0h0c0,0,.2,0,.2,0h0c.1.1.3.2.4.2h0c0,0,.3,0,.3,0h0c0,0,.2,0,.2,0h0c0,0,.3,0,.3,0h0c0,0,.2,0,.2,0h0c0,0,.3,0,.3,0h0c0,0,.3,0,.3,0h0c0,0,.3,0,.3,0h0c0,0,.3,0,.3,0h0c0,0,.3,0,.3,0h0c0,0,.3,0,.3,0h0c0,0,.3,0,.3,0h0c0,0,.3,0,.3,0h0c.4.2.7.2,1.1.3h0c.4.2.9.2,1.3.3h0c.5.2,1.1.2,1.6.3,1.2.4,2.9.5,4.4.5h.5c0,0,2.9,0,2.9,0h0c0,0,1.8,0,1.8,0h0c0,0,1.1,0,1.1,0h0c0,0,.8,0,.8,0h0c0,0,.7,0,.7,0h0c0,0,.7,0,.7,0h0c.4-.1.7-.2,1.1-.2h0c0,0,.5,0,.5,0h0c0,0,.4,0,.4,0h0c0,0,.4,0,.4,0h0c0,0,.4,0,.4,0h0c0,0,.4,0,.4,0h0c.3-.1.5-.2.8-.2h0c0,0,.3,0,.3,0h0c0,0,.3,0,.3,0h0c0,0,.3,0,.3,0h0c.2-.1.5-.2.7-.2h0c0,0,.2,0,.2,0h0c.3-.2.6-.2.9-.3h0c0,0,.2,0,.2,0h0c0,0,.3,0,.3,0h0c.1-.1.3-.2.4-.2h0c0,0,.3,0,.3,0h0c.2-.2.4-.2.6-.3h0c0,0,.2,0,.2,0h0c0,0,.2,0,.2,0h0c0,0,.2,0,.2,0h0c0,0,.2,0,.2,0h0c0,0,.2,0,.2,0h0c0,0,.2,0,.2,0h0c0,0,.2,0,.2,0h0c0,0,.2,0,.2,0,0,0,0-.1.1-.2.2,0,.4-.1.6-.2h0c.1-.1.2-.2.3-.2,0,0,0-.1.1-.2h.2c0,0,0-.1.1-.2h.2c.1-.1.2-.2.3-.2,0,0,0-.1.1-.2h.2c0,0,.1-.2.2-.3h.2c0,0,.1-.2.2-.3h.2c.1-.1.2-.3.3-.4h.2c.2-.2.3-.4.5-.6h.2c.3-.3.5-.6.8-.9.3-.3.6-.5.9-.8v-.2c.2-.2.4-.3.6-.5v-.2c.1,0,.3-.2.4-.3v-.2c.1,0,.3-.2.4-.3v-.2c.1,0,.2-.1.3-.2v-.2c0,0,.1,0,.2,0v-.2h.1c0,0,0-.2.1-.3.1,0,.2-.1.3-.2,0-.1,0-.3.1-.4,0,0,.1,0,.2,0,0,0,0-.2.1-.3h.1c0-.1,0-.3.1-.4,0,0,.1,0,.2,0,0-.1,0-.3.1-.4,0,0,.1,0,.2,0v-.2h.1v-.2h.1v-.2h.1v-.2h.1v-.2h.1v-.2h.1v-.2h.1v-.2h.1c0-.2.1-.4.2-.6h.1c0-.2,0-.3.1-.5h.1v-.2h.1v-.3h.1v-.2h.1v-.3h.1v-.2h0c.4-1.4.9-2.9,1.3-4.3v-.5c.1-.5.3-1.1.4-1.6v-.7h.1v-.7h.1v-1h.1v-1.6c0-.3.2-2.2.1-2.7h.1ZM212.4,29.9v.8c-.3,1.2-.5,2.5-.8,3.7-1.1,3.1-2.4,6-4.8,7.7-.1.1-.2.3-.3.4h-.2c0,0-.1.2-.2.3h-.2c0,0,0,.1-.1.2h-.2c0,0,0,.1-.1.2h-.2c0,0-.2,0-.2,0,0,0,0,.1-.1.2h-.2c0,0-.2,0-.2,0h0c0,0-.2,0-.2,0h0c0,0-.2,0-.2,0h0c-.1.1-.3.2-.4.2h0c-.2.1-.3.2-.5.2h0c0,0-.3,0-.3,0h0c0,0-.2,0-.2,0h0c0,0-.3,0-.3,0h0c-.2.1-.5.2-.7.2h0c-.3.1-.5.2-.8.2h0c0,0-.6,0-.6,0-.2,0-.7.2-.9.2h-.9c0,0-1.8,0-1.8,0h0c0,0-1.2,0-1.2,0h0c0,0-.6,0-.6,0h0c0,0-.6,0-.6,0h0c0,0-.4,0-.4,0h0c0,0-.4,0-.4,0-2.5-.9-4.8-2.1-6.2-4.1-.2-.1-.3-.3-.5-.4v-.2c0,0-.1,0-.2,0v-.2c-.1,0-.2-.1-.3-.2,0-.1,0-.3-.1-.4,0,0-.1,0-.2,0v-.2h-.1v-.2h-.1v-.2h-.1v-.2c-1.1-2.2-1.9-5-1.9-8.3,0-1.3,0-2.6.1-3.9h.1v-.8h.1v-.6h.1v-.6h.1v-.5h.1v-.4h.1v-.4h.1v-.4h.1v-.4h.1c0-.2,0-.5.1-.7h.1v-.3h.1v-.3h.1v-.2h.1c0-.2,0-.4.1-.6h.1v-.2h.1v-.3h.1c0-.1,0-.3.1-.4h.1c.1-.3.2-.6.3-.9,0,0,.1,0,.2-.1,0-.2.1-.4.2-.6,0,0,.1,0,.2-.1,0-.1,0-.3.1-.4,0,0,.1,0,.2-.1v-.2c.1,0,.2-.1.3-.2v-.2c.1-.1.3-.2.4-.3v-.2c.3-.3.6-.5.9-.8.3-.3.5-.6.8-.9h.2c0-.1.1-.2.2-.3.1,0,.2,0,.3-.1,0,0,0-.1.1-.2h.2c0,0,0-.1.1-.2.1,0,.3,0,.4-.1,0,0,0-.1.1-.2.2,0,.4-.1.6-.2h0c0-.1.2-.1.2-.1h0c0-.1.2-.1.2-.1h0c0-.1.2-.1.2-.1h0c.2-.2.4-.2.6-.3h0c0-.1.3-.1.3-.1h0c0-.1.3-.1.3-.1h0c0-.1.2-.1.2-.1h0c0-.1.3-.1.3-.1h0c.9-.3,1.9-.5,2.8-.7.4-.1.9.1,1.2-.1,3.5,0,6,.5,8.1,1.9.1,0,.3,0,.4.1,0,0,0,.1.1.2h.2c0,.1.1.2.2.3h.2c0,.1.1.2.2.3.1,0,.2,0,.3.1.2.2.4.5.6.7h.2c0,.1.1.2.2.2v.2c.2.2.5.4.7.6v.2c.1,0,.2.1.3.2v.2c0,0,.1,0,.2.1,0,.1,0,.2.1.3h.1v.2c0,0,.1,0,.2.1,0,.2.1.4.2.6h.1v.2h.1v.2h.1c0,.2.1.4.2.6h.1c0,.2,0,.4.1.6h.1v.2h.1c0,.3.1.7.2,1h.1v.3h.1v.4h.1v.4h.1c0,.5.1,1.1.2,1.6.4,1.4.5,5.5.1,7h0Z"/>
  </g>
</svg>